<svg xmlns="http://www.w3.org/2000/svg" xmlns:xlink="http://www.w3.org/1999/xlink" width="486" zoomAndPan="magnify" viewBox="0 0 364.5 265.499997" height="354" preserveAspectRatio="xMidYMid meet" version="1.0"><defs><clipPath id="1d3733fce0"><path d="M 0.09375 82.914062 L 79 82.914062 L 79 175.558594 L 0.09375 175.558594 Z M 0.09375 82.914062 " clip-rule="nonzero"/></clipPath><clipPath id="86efdfb0b0"><path d="M 258.015625 71.285156 L 363.40625 71.285156 L 363.40625 186.96875 L 258.015625 186.96875 Z M 258.015625 71.285156 " clip-rule="nonzero"/></clipPath><clipPath id="5a114ab750"><path d="M 157.0625 197.371094 L 177.160156 197.371094 L 177.160156 264.527344 L 157.0625 264.527344 Z M 157.0625 197.371094 " clip-rule="nonzero"/></clipPath><clipPath id="34dd00ae6e"><path d="M 84.3125 99 L 165 99 L 165 180 L 84.3125 180 Z M 84.3125 99 " clip-rule="nonzero"/></clipPath><clipPath id="22a3e55baa"><path d="M 152 162.863281 L 167.480469 162.863281 L 167.480469 197.378906 L 152 197.378906 Z M 152 162.863281 " clip-rule="nonzero"/></clipPath><clipPath id="ed313e6973"><path d="M 167 162.863281 L 182 162.863281 L 182 197.378906 L 167 197.378906 Z M 167 162.863281 " clip-rule="nonzero"/></clipPath><clipPath id="78b66b1631"><path d="M 84.359375 34.167969 L 252.449219 34.167969 L 252.449219 117.292969 L 84.359375 117.292969 Z M 84.359375 34.167969 " clip-rule="nonzero"/></clipPath><clipPath id="92d6c75e4e"><path d="M 168 18 L 253.382812 18 L 253.382812 47 L 168 47 Z M 168 18 " clip-rule="nonzero"/></clipPath><clipPath id="ab0a3e7e0e"><path d="M 83.78125 34 L 169 34 L 169 93.136719 L 83.78125 93.136719 Z M 83.78125 34 " clip-rule="nonzero"/></clipPath><clipPath id="cb1a95426e"><path d="M 168 34 L 253.382812 34 L 253.382812 93.136719 L 168 93.136719 Z M 168 34 " clip-rule="nonzero"/></clipPath><clipPath id="90c4c01f0a"><path d="M 258.015625 197.371094 L 278.113281 197.371094 L 278.113281 264.527344 L 258.015625 264.527344 Z M 258.015625 197.371094 " clip-rule="nonzero"/></clipPath><clipPath id="1f4787b0aa"><path d="M 184.949219 184.449219 L 257.988281 184.449219 L 257.988281 264.839844 L 184.949219 264.839844 Z M 184.949219 184.449219 " clip-rule="nonzero"/></clipPath><clipPath id="9f7cf356df"><path d="M 51.007812 181.925781 L 118 181.925781 L 118 264.765625 L 51.007812 264.765625 Z M 51.007812 181.925781 " clip-rule="nonzero"/></clipPath><clipPath id="e3e36cdf26"><path d="M 101 181.925781 L 149.046875 181.925781 L 149.046875 264.765625 L 101 264.765625 Z M 101 181.925781 " clip-rule="nonzero"/></clipPath></defs><g clip-path="url(#1d3733fce0)"><path fill="#a8d5ba" d="M 0.132812 175.574219 L 44.222656 175.574219 C 65.113281 175.574219 78.820312 167.121094 78.820312 150.199219 L 78.820312 149.945312 C 78.820312 137.515625 72.289062 131.230469 61.515625 127.132812 C 68.179688 123.414062 73.6875 117.652344 73.6875 107.136719 L 73.6875 106.878906 C 73.6875 100.476562 71.636719 95.351562 67.410156 91.113281 C 62.03125 85.859375 53.703125 82.914062 43.1875 82.914062 L 0.125 82.914062 L 0.125 100.859375 L 40.113281 100.859375 C 48.695312 100.859375 53.4375 104.191406 53.4375 110.339844 L 53.4375 110.59375 C 53.4375 117.511719 47.800781 120.332031 38.695312 120.332031 L 0.132812 120.332031 Z M 19.992188 157.769531 L 19.992188 137.390625 L 43.570312 137.390625 C 53.949219 137.390625 58.570312 141.234375 58.570312 147.382812 L 58.570312 147.636719 C 58.570312 154.554688 53.191406 157.757812 44.210938 157.757812 L 19.992188 157.757812 Z M 19.992188 157.769531 " fill-opacity="1" fill-rule="evenodd"/></g><g clip-path="url(#86efdfb0b0)"><path fill="#a8d5ba" d="M 258.050781 187.207031 L 283.550781 187.207031 L 283.550781 156.578125 L 361.3125 71.285156 L 330.539062 71.285156 L 283.5625 121.945312 L 283.5625 71.285156 L 258.050781 71.285156 Z M 305.519531 150.648438 L 332.941406 187.207031 L 363.570312 187.207031 L 321.402344 132.523438 Z M 305.519531 150.648438 " fill-opacity="1" fill-rule="evenodd"/></g><g clip-path="url(#5a114ab750)"><path fill="#ffffff" d="M 161.894531 259.550781 C 161.894531 260.640625 161.164062 261.613281 160.109375 261.902344 C 159.199219 262.160156 158.300781 262.328125 157.707031 262.449219 C 157.339844 262.523438 157.0625 262.851562 157.0625 263.25 L 157.0625 263.820312 C 157.0625 264.257812 157.414062 264.609375 157.851562 264.609375 L 176.308594 264.609375 C 176.746094 264.609375 177.097656 264.257812 177.097656 263.820312 L 177.097656 263.25 C 177.097656 262.863281 176.820312 262.523438 176.445312 262.449219 C 175.859375 262.339844 174.949219 262.160156 174.039062 261.902344 C 172.984375 261.613281 172.257812 260.640625 172.257812 259.550781 L 172.257812 202.488281 C 172.257812 201.394531 172.984375 200.421875 174.039062 200.132812 C 174.949219 199.878906 175.847656 199.707031 176.445312 199.585938 C 176.832031 199.511719 177.097656 199.171875 177.097656 198.785156 L 177.097656 198.214844 C 177.097656 197.777344 176.746094 197.425781 176.308594 197.425781 L 161.894531 197.425781 L 157.851562 197.4375 C 157.414062 197.4375 157.0625 197.789062 157.0625 198.226562 L 157.0625 198.796875 C 157.0625 199.183594 157.339844 199.523438 157.71875 199.597656 C 158.300781 199.707031 159.210938 199.890625 160.121094 200.144531 C 161.175781 200.433594 161.90625 201.40625 161.90625 202.5 L 161.90625 259.550781 Z M 161.894531 259.550781 " fill-opacity="1" fill-rule="nonzero"/></g><path fill="#ffffff" d="M 211.734375 99.675781 C 208.253906 99.675781 204.875 100.125 201.652344 100.957031 C 207.734375 103.484375 212.015625 109.476562 212.015625 116.472656 C 212.015625 125.75 204.496094 133.269531 195.21875 133.269531 C 186.265625 133.269531 178.96875 126.261719 178.46875 117.433594 C 174.195312 123.804688 171.703125 131.464844 171.703125 139.710938 C 171.703125 161.816406 189.625 179.742188 211.734375 179.742188 C 233.84375 179.742188 251.765625 161.816406 251.765625 139.710938 C 251.765625 117.597656 233.84375 99.675781 211.734375 99.675781 " fill-opacity="1" fill-rule="nonzero"/><g clip-path="url(#34dd00ae6e)"><path fill="#ffffff" d="M 124.390625 99.675781 C 120.90625 99.675781 117.527344 100.125 114.308594 100.957031 C 120.390625 103.484375 124.671875 109.476562 124.671875 116.472656 C 124.671875 125.75 117.148438 133.269531 107.875 133.269531 C 98.921875 133.269531 91.625 126.261719 91.125 117.433594 C 86.851562 123.804688 84.359375 131.464844 84.359375 139.710938 C 84.359375 161.816406 102.28125 179.742188 124.390625 179.742188 C 146.5 179.742188 164.421875 161.816406 164.421875 139.710938 C 164.421875 117.597656 146.5 99.675781 124.390625 99.675781 " fill-opacity="1" fill-rule="nonzero"/></g><g clip-path="url(#22a3e55baa)"><path fill="#a8d5ba" d="M 167.082031 162.945312 L 152.386719 179.742188 L 167.082031 197.378906 Z M 167.082031 162.945312 " fill-opacity="1" fill-rule="nonzero"/></g><g clip-path="url(#ed313e6973)"><path fill="#ffffff" d="M 167.082031 162.945312 L 181.78125 179.742188 L 167.082031 197.378906 Z M 167.082031 162.945312 " fill-opacity="1" fill-rule="nonzero"/></g><g clip-path="url(#78b66b1631)"><path fill="#ffffff" d="M 184.859375 76.722656 C 168.382812 82.320312 169.183594 103.035156 169.183594 103.035156 L 168.433594 116.121094 L 167.683594 103.035156 C 167.683594 103.035156 168.484375 82.320312 152.007812 76.722656 C 130.214844 69.316406 99.9375 70.667969 84.359375 34.167969 L 84.359375 93.347656 C 84.359375 101.804688 93.808594 106.699219 100.804688 101.945312 C 107.058594 97.699219 115.421875 94.496094 126.421875 94.496094 C 156.828125 94.496094 167.355469 114.679688 168.390625 116.835938 L 168.382812 117.035156 C 168.382812 117.035156 168.402344 116.988281 168.433594 116.921875 C 168.464844 116.988281 168.484375 117.035156 168.484375 117.035156 L 168.472656 116.835938 C 169.511719 114.679688 180.039062 94.496094 210.445312 94.496094 C 221.445312 94.496094 229.808594 97.699219 236.0625 101.945312 C 243.058594 106.699219 252.511719 101.804688 252.511719 93.347656 L 252.511719 34.167969 C 236.929688 70.667969 206.65625 69.316406 184.859375 76.722656 " fill-opacity="1" fill-rule="nonzero"/></g><g clip-path="url(#92d6c75e4e)"><path fill="#ffffff" d="M 250.410156 28.632812 C 251.28125 25.511719 253.199219 19.289062 253.199219 19.289062 C 180.519531 13.164062 168.496094 46.148438 168.496094 46.148438 C 185.363281 24.511719 237.726562 27.550781 250.410156 28.632812 " fill-opacity="1" fill-rule="nonzero"/></g><path fill="#a8d5ba" d="M 86.863281 27.371094 C 86.039062 24.242188 84.21875 17.988281 84.21875 17.988281 C 156.984375 12.984375 168.496094 46.148438 168.496094 46.148438 C 151.96875 24.253906 99.566406 26.484375 86.863281 27.371094 " fill-opacity="1" fill-rule="nonzero"/><g clip-path="url(#ab0a3e7e0e)"><path fill="#a8d5ba" d="M 83.792969 36.03125 L 100.707031 77.066406 C 127.875 80.359375 152.523438 72.695312 168.496094 93.1875 L 168.496094 53.285156 C 149.253906 28.597656 83.792969 36.03125 83.792969 36.03125 " fill-opacity="1" fill-rule="nonzero"/></g><g clip-path="url(#cb1a95426e)"><path fill="#ffffff" d="M 253.199219 36.035156 L 236.285156 77.066406 C 209.117188 80.359375 184.472656 72.695312 168.496094 93.1875 L 168.496094 53.285156 C 187.742188 28.597656 253.199219 36.035156 253.199219 36.035156 " fill-opacity="1" fill-rule="nonzero"/></g><path fill="#ffffff" d="M 235.636719 0.00390625 L 233.316406 9.777344 C 211.808594 11.890625 181.191406 17.863281 170.53125 34.707031 C 170.53125 34.707031 177.707031 6.121094 235.636719 0.00390625 " fill-opacity="1" fill-rule="nonzero"/><path fill="#a8d5ba" d="M 101.359375 0.00390625 L 103.675781 9.777344 C 125.1875 11.890625 155.804688 17.863281 166.464844 34.707031 C 166.464844 34.707031 159.289062 6.121094 101.359375 0.00390625 " fill-opacity="1" fill-rule="nonzero"/><g clip-path="url(#90c4c01f0a)"><path fill="#ffffff" d="M 262.847656 259.550781 C 262.847656 260.640625 262.117188 261.613281 261.0625 261.902344 C 260.152344 262.160156 259.253906 262.328125 258.660156 262.449219 C 258.292969 262.523438 258.015625 262.851562 258.015625 263.25 L 258.015625 263.820312 C 258.015625 264.257812 258.367188 264.609375 258.804688 264.609375 L 277.261719 264.609375 C 277.699219 264.609375 278.050781 264.257812 278.050781 263.820312 L 278.050781 263.25 C 278.050781 262.863281 277.773438 262.523438 277.398438 262.449219 C 276.8125 262.339844 275.902344 262.160156 274.992188 261.902344 C 273.9375 261.613281 273.210938 260.640625 273.210938 259.550781 L 273.210938 202.488281 C 273.210938 201.394531 273.9375 200.421875 274.992188 200.132812 C 275.902344 199.878906 276.800781 199.707031 277.398438 199.585938 C 277.785156 199.511719 278.050781 199.171875 278.050781 198.785156 L 278.050781 198.214844 C 278.050781 197.777344 277.699219 197.425781 277.261719 197.425781 L 262.847656 197.425781 L 258.804688 197.4375 C 258.367188 197.4375 258.015625 197.789062 258.015625 198.226562 L 258.015625 198.796875 C 258.015625 199.183594 258.292969 199.523438 258.671875 199.597656 C 259.253906 199.707031 260.164062 199.890625 261.074219 200.144531 C 262.128906 200.433594 262.859375 201.40625 262.859375 202.5 L 262.859375 259.550781 Z M 262.847656 259.550781 " fill-opacity="1" fill-rule="nonzero"/></g><g clip-path="url(#1f4787b0aa)"><path fill="#ffffff" d="M 184.972656 264.664062 L 202.617188 264.664062 L 202.617188 243.472656 L 256.425781 184.449219 L 235.128906 184.449219 L 202.625 219.507812 L 202.625 184.449219 L 184.972656 184.449219 Z M 217.820312 239.367188 L 236.792969 264.664062 L 257.988281 264.664062 L 228.808594 226.828125 Z M 217.820312 239.367188 " fill-opacity="1" fill-rule="evenodd"/></g><g clip-path="url(#9f7cf356df)"><path fill="#ffffff" d="M 68.21875 181.925781 L 83.984375 242.472656 L 101.222656 181.925781 L 117.527344 181.925781 L 91.886719 264.667969 L 76.371094 264.667969 L 51.089844 181.925781 L 68.21875 181.925781 " fill-opacity="1" fill-rule="nonzero"/></g><g clip-path="url(#e3e36cdf26)"><path fill="#ffffff" d="M 109.878906 220.136719 L 115.589844 242.472656 L 132.828125 181.925781 L 149.132812 181.925781 L 123.488281 264.667969 L 107.976562 264.667969 L 101.65625 245.992188 L 109.878906 220.136719 " fill-opacity="1" fill-rule="nonzero"/></g></svg>