<svg xmlns="http://www.w3.org/2000/svg" xmlns:xlink="http://www.w3.org/1999/xlink" width="377" zoomAndPan="magnify" viewBox="0 0 282.75 329.249999" height="439" preserveAspectRatio="xMidYMid meet" version="1.0"><defs><clipPath id="1f75584d54"><path d="M 1.082031 165 L 135 165 L 135 299 L 1.082031 299 Z M 1.082031 165 " clip-rule="nonzero"/></clipPath><clipPath id="b61f916f94"><path d="M 114 270.679688 L 139 270.679688 L 139 327.671875 L 114 327.671875 Z M 114 270.679688 " clip-rule="nonzero"/></clipPath><clipPath id="1b9afed868"><path d="M 138.484375 270.679688 L 163.453125 270.679688 L 163.453125 327.671875 L 138.484375 327.671875 Z M 138.484375 270.679688 " clip-rule="nonzero"/></clipPath><clipPath id="9513b55fe5"><path d="M 1.160156 56.789062 L 280.632812 56.789062 L 280.632812 194.945312 L 1.160156 194.945312 Z M 1.160156 56.789062 " clip-rule="nonzero"/></clipPath><clipPath id="67d35190bc"><path d="M 141 30 L 281.554688 30 L 281.554688 77 L 141 77 Z M 141 30 " clip-rule="nonzero"/></clipPath><clipPath id="e3b8179d14"><path d="M 0.195312 29 L 141 29 L 141 77 L 0.195312 77 Z M 0.195312 29 " clip-rule="nonzero"/></clipPath><clipPath id="19da0c8302"><path d="M 0.195312 58 L 141 58 L 141 154.898438 L 0.195312 154.898438 Z M 0.195312 58 " clip-rule="nonzero"/></clipPath><clipPath id="170e65e65d"><path d="M 141 58 L 281.554688 58 L 281.554688 154.898438 L 141 154.898438 Z M 141 58 " clip-rule="nonzero"/></clipPath></defs><path fill="#4b4b4b" d="M 212.863281 165.664062 C 207.078125 165.664062 201.460938 166.40625 196.109375 167.796875 C 206.21875 171.992188 213.328125 181.953125 213.328125 193.578125 C 213.328125 209 200.832031 221.5 185.414062 221.5 C 170.535156 221.5 158.410156 209.847656 157.578125 195.179688 C 150.472656 205.765625 146.328125 218.496094 146.328125 232.203125 C 146.328125 268.945312 176.117188 298.734375 212.863281 298.734375 C 249.609375 298.734375 279.398438 268.945312 279.398438 232.203125 C 279.398438 195.453125 249.609375 165.664062 212.863281 165.664062 " fill-opacity="1" fill-rule="nonzero"/><g clip-path="url(#1f75584d54)"><path fill="#4b4b4b" d="M 67.695312 165.664062 C 61.90625 165.664062 56.292969 166.40625 50.941406 167.796875 C 61.046875 171.992188 68.160156 181.953125 68.160156 193.578125 C 68.160156 209 55.660156 221.5 40.246094 221.5 C 25.367188 221.5 13.242188 209.847656 12.410156 195.179688 C 5.304688 205.765625 1.160156 218.496094 1.160156 232.203125 C 1.160156 268.945312 30.949219 298.734375 67.695312 298.734375 C 104.441406 298.734375 134.230469 268.945312 134.230469 232.203125 C 134.230469 195.453125 104.441406 165.664062 67.695312 165.664062 " fill-opacity="1" fill-rule="nonzero"/></g><g clip-path="url(#b61f916f94)"><path fill="#a8d5ba" d="M 138.652344 270.816406 L 114.226562 298.734375 L 138.652344 328.046875 Z M 138.652344 270.816406 " fill-opacity="1" fill-rule="nonzero"/></g><g clip-path="url(#1b9afed868)"><path fill="#4b4b4b" d="M 138.652344 270.816406 L 163.082031 298.734375 L 138.652344 328.046875 Z M 138.652344 270.816406 " fill-opacity="1" fill-rule="nonzero"/></g><g clip-path="url(#9513b55fe5)"><path fill="#4b4b4b" d="M 168.199219 127.511719 C 140.8125 136.816406 142.140625 171.25 142.140625 171.25 L 140.894531 192.996094 L 139.652344 171.25 C 139.652344 171.25 140.984375 136.816406 113.597656 127.511719 C 77.375 115.203125 27.050781 117.449219 1.160156 56.785156 L 1.160156 155.144531 C 1.160156 169.199219 16.867188 177.335938 28.496094 169.4375 C 38.890625 162.378906 52.789062 157.058594 71.074219 157.058594 C 121.609375 157.058594 139.105469 190.601562 140.828125 194.183594 L 140.8125 194.511719 C 140.8125 194.511719 140.84375 194.433594 140.894531 194.328125 C 140.949219 194.433594 140.984375 194.511719 140.984375 194.511719 L 140.964844 194.183594 C 142.691406 190.601562 160.183594 157.058594 210.722656 157.058594 C 229.003906 157.058594 242.902344 162.378906 253.296875 169.4375 C 264.925781 177.335938 280.632812 169.199219 280.632812 155.144531 L 280.632812 56.785156 C 254.742188 117.449219 204.421875 115.203125 168.199219 127.511719 " fill-opacity="1" fill-rule="nonzero"/></g><g clip-path="url(#67d35190bc)"><path fill="#4b4b4b" d="M 277.140625 47.585938 C 278.589844 42.402344 281.777344 32.0625 281.777344 32.0625 C 160.976562 21.878906 141 76.699219 141 76.699219 C 169.03125 40.742188 256.058594 45.789062 277.140625 47.585938 " fill-opacity="1" fill-rule="nonzero"/></g><g clip-path="url(#e3b8179d14)"><path fill="#a8d5ba" d="M 5.320312 45.492188 C 3.949219 40.289062 0.921875 29.898438 0.921875 29.898438 C 121.867188 21.578125 141 76.699219 141 76.699219 C 113.523438 40.3125 26.429688 44.019531 5.320312 45.492188 " fill-opacity="1" fill-rule="nonzero"/></g><g clip-path="url(#19da0c8302)"><path fill="#a8d5ba" d="M 0.21875 59.886719 L 28.328125 128.089844 C 73.484375 133.5625 114.449219 120.824219 141 154.882812 L 141 88.558594 C 109.015625 47.53125 0.21875 59.886719 0.21875 59.886719 " fill-opacity="1" fill-rule="nonzero"/></g><g clip-path="url(#170e65e65d)"><path fill="#4b4b4b" d="M 281.777344 59.890625 L 253.667969 128.089844 C 208.511719 133.5625 167.546875 120.824219 141 154.882812 L 141 88.558594 C 172.980469 47.53125 281.777344 59.890625 281.777344 59.890625 " fill-opacity="1" fill-rule="nonzero"/></g><path fill="#4b4b4b" d="M 252.585938 0.00390625 L 248.734375 16.25 C 212.980469 19.761719 162.097656 29.691406 144.382812 57.6875 C 144.382812 57.6875 156.308594 10.171875 252.585938 0.00390625 " fill-opacity="1" fill-rule="nonzero"/><path fill="#a8d5ba" d="M 29.410156 0.00390625 L 33.265625 16.25 C 69.019531 19.761719 119.902344 29.691406 137.617188 57.6875 C 137.617188 57.6875 125.691406 10.171875 29.410156 0.00390625 " fill-opacity="1" fill-rule="nonzero"/></svg>