<svg xmlns="http://www.w3.org/2000/svg" xmlns:xlink="http://www.w3.org/1999/xlink" width="486" zoomAndPan="magnify" viewBox="0 0 364.5 265.499997" height="354" preserveAspectRatio="xMidYMid meet" version="1.0"><defs><clipPath id="3159d592ca"><path d="M 0.09375 82.914062 L 78.695312 82.914062 L 78.695312 175.738281 L 0.09375 175.738281 Z M 0.09375 82.914062 " clip-rule="nonzero"/></clipPath><clipPath id="252ef3a195"><path d="M 258.015625 71.285156 L 363.566406 71.285156 L 363.566406 187.316406 L 258.015625 187.316406 Z M 258.015625 71.285156 " clip-rule="nonzero"/></clipPath><clipPath id="3cc0e1b24e"><path d="M 157.0625 197.371094 L 177.273438 197.371094 L 177.273438 264.746094 L 157.0625 264.746094 Z M 157.0625 197.371094 " clip-rule="nonzero"/></clipPath><clipPath id="8dc23cc698"><path d="M 84.3125 99 L 165 99 L 165 180 L 84.3125 180 Z M 84.3125 99 " clip-rule="nonzero"/></clipPath><clipPath id="8263d5626a"><path d="M 152 162.859375 L 167.484375 162.859375 L 167.484375 197.363281 L 152 197.363281 Z M 152 162.859375 " clip-rule="nonzero"/></clipPath><clipPath id="f32d70bd68"><path d="M 167 162.859375 L 182 162.859375 L 182 197.363281 L 167 197.363281 Z M 167 162.859375 " clip-rule="nonzero"/></clipPath><clipPath id="d925d455ff"><path d="M 84.359375 34.167969 L 252.511719 34.167969 L 252.511719 117.292969 L 84.359375 117.292969 Z M 84.359375 34.167969 " clip-rule="nonzero"/></clipPath><clipPath id="9bbbe77a13"><path d="M 168 18 L 252.960938 18 L 252.960938 47 L 168 47 Z M 168 18 " clip-rule="nonzero"/></clipPath><clipPath id="f8100099cb"><path d="M 83.78125 34 L 169 34 L 169 92.824219 L 83.78125 92.824219 Z M 83.78125 34 " clip-rule="nonzero"/></clipPath><clipPath id="c626cc70cf"><path d="M 168 34 L 252.960938 34 L 252.960938 92.824219 L 168 92.824219 Z M 168 34 " clip-rule="nonzero"/></clipPath><clipPath id="1665674232"><path d="M 258.015625 197.371094 L 278.226562 197.371094 L 278.226562 264.746094 L 258.015625 264.746094 Z M 258.015625 197.371094 " clip-rule="nonzero"/></clipPath><clipPath id="ff86b86120"><path d="M 184.949219 184.449219 L 258 184.449219 L 258 264.546875 L 184.949219 264.546875 Z M 184.949219 184.449219 " clip-rule="nonzero"/></clipPath><clipPath id="f5d10af88b"><path d="M 51.007812 181.925781 L 118 181.925781 L 118 265 L 51.007812 265 Z M 51.007812 181.925781 " clip-rule="nonzero"/></clipPath><clipPath id="5bf1f191df"><path d="M 101 181.925781 L 149.074219 181.925781 L 149.074219 265 L 101 265 Z M 101 181.925781 " clip-rule="nonzero"/></clipPath></defs><g clip-path="url(#3159d592ca)"><path fill="#a8d5ba" d="M 0.136719 175.574219 L 44.226562 175.574219 C 65.117188 175.574219 78.824219 167.121094 78.824219 150.199219 L 78.824219 149.945312 C 78.824219 137.519531 72.292969 131.230469 61.519531 127.132812 C 68.183594 123.414062 73.691406 117.652344 73.691406 107.136719 L 73.691406 106.878906 C 73.691406 100.476562 71.640625 95.351562 67.414062 91.113281 C 62.03125 85.859375 53.707031 82.914062 43.191406 82.914062 L 0.128906 82.914062 L 0.128906 100.859375 L 40.117188 100.859375 C 48.699219 100.859375 53.441406 104.191406 53.441406 110.339844 L 53.441406 110.59375 C 53.441406 117.511719 47.804688 120.332031 38.699219 120.332031 L 0.136719 120.332031 Z M 19.992188 157.769531 L 19.992188 137.390625 L 43.574219 137.390625 C 53.953125 137.390625 58.574219 141.234375 58.574219 147.382812 L 58.574219 147.636719 C 58.574219 154.554688 53.191406 157.757812 44.214844 157.757812 L 19.992188 157.757812 Z M 19.992188 157.769531 " fill-opacity="1" fill-rule="evenodd"/></g><g clip-path="url(#252ef3a195)"><path fill="#a8d5ba" d="M 258.050781 187.210938 L 283.546875 187.210938 L 283.546875 156.582031 L 361.3125 71.285156 L 330.535156 71.285156 L 283.558594 121.949219 L 283.558594 71.285156 L 258.050781 71.285156 Z M 305.519531 150.652344 L 332.941406 187.210938 L 363.570312 187.210938 L 321.398438 132.527344 Z M 305.519531 150.652344 " fill-opacity="1" fill-rule="evenodd"/></g><g clip-path="url(#3cc0e1b24e)"><path fill="#4b4b4b" d="M 161.894531 259.546875 C 161.894531 260.640625 161.164062 261.613281 160.109375 261.902344 C 159.199219 262.15625 158.300781 262.328125 157.707031 262.449219 C 157.339844 262.523438 157.0625 262.847656 157.0625 263.25 L 157.0625 263.820312 C 157.0625 264.257812 157.414062 264.609375 157.851562 264.609375 L 176.308594 264.609375 C 176.746094 264.609375 177.097656 264.257812 177.097656 263.820312 L 177.097656 263.25 C 177.097656 262.863281 176.820312 262.523438 176.445312 262.449219 C 175.859375 262.339844 174.949219 262.15625 174.039062 261.902344 C 172.984375 261.613281 172.257812 260.640625 172.257812 259.546875 L 172.257812 202.484375 C 172.257812 201.394531 172.984375 200.421875 174.039062 200.128906 C 174.949219 199.875 175.847656 199.707031 176.445312 199.585938 C 176.832031 199.511719 177.097656 199.171875 177.097656 198.785156 L 177.097656 198.214844 C 177.097656 197.777344 176.746094 197.425781 176.308594 197.425781 L 161.894531 197.425781 L 157.851562 197.4375 C 157.414062 197.4375 157.0625 197.789062 157.0625 198.226562 L 157.0625 198.796875 C 157.0625 199.183594 157.339844 199.523438 157.71875 199.597656 C 158.300781 199.707031 159.210938 199.886719 160.121094 200.144531 C 161.175781 200.433594 161.90625 201.40625 161.90625 202.496094 L 161.90625 259.546875 Z M 161.894531 259.546875 " fill-opacity="1" fill-rule="nonzero"/></g><path fill="#4b4b4b" d="M 211.734375 99.675781 C 208.253906 99.675781 204.875 100.121094 201.652344 100.957031 C 207.738281 103.484375 212.015625 109.476562 212.015625 116.472656 C 212.015625 125.75 204.496094 133.269531 195.21875 133.269531 C 186.269531 133.269531 178.972656 126.257812 178.472656 117.433594 C 174.199219 123.800781 171.703125 131.460938 171.703125 139.707031 C 171.703125 161.816406 189.625 179.738281 211.734375 179.738281 C 233.84375 179.738281 251.769531 161.816406 251.769531 139.707031 C 251.769531 117.597656 233.84375 99.675781 211.734375 99.675781 " fill-opacity="1" fill-rule="nonzero"/><g clip-path="url(#8dc23cc698)"><path fill="#4b4b4b" d="M 124.394531 99.675781 C 120.910156 99.675781 117.53125 100.121094 114.3125 100.957031 C 120.394531 103.484375 124.671875 109.476562 124.671875 116.472656 C 124.671875 125.75 117.152344 133.269531 107.875 133.269531 C 98.925781 133.269531 91.628906 126.257812 91.128906 117.433594 C 86.855469 123.800781 84.359375 131.460938 84.359375 139.707031 C 84.359375 161.816406 102.285156 179.738281 124.394531 179.738281 C 146.5 179.738281 164.425781 161.816406 164.425781 139.707031 C 164.425781 117.597656 146.5 99.675781 124.394531 99.675781 " fill-opacity="1" fill-rule="nonzero"/></g><g clip-path="url(#8263d5626a)"><path fill="#a8d5ba" d="M 167.085938 162.941406 L 152.386719 179.738281 L 167.085938 197.375 Z M 167.085938 162.941406 " fill-opacity="1" fill-rule="nonzero"/></g><g clip-path="url(#f32d70bd68)"><path fill="#4b4b4b" d="M 167.085938 162.941406 L 181.78125 179.738281 L 167.085938 197.375 Z M 167.085938 162.941406 " fill-opacity="1" fill-rule="nonzero"/></g><g clip-path="url(#d925d455ff)"><path fill="#4b4b4b" d="M 184.863281 76.722656 C 168.382812 82.320312 169.183594 103.035156 169.183594 103.035156 L 168.433594 116.121094 L 167.6875 103.035156 C 167.6875 103.035156 168.488281 82.320312 152.011719 76.722656 C 130.214844 69.316406 99.9375 70.667969 84.359375 34.167969 L 84.359375 93.347656 C 84.359375 101.804688 93.808594 106.695312 100.808594 101.945312 C 107.058594 97.699219 115.425781 94.496094 126.425781 94.496094 C 156.832031 94.496094 167.355469 114.679688 168.394531 116.835938 L 168.382812 117.03125 C 168.382812 117.03125 168.402344 116.984375 168.433594 116.921875 C 168.464844 116.984375 168.488281 117.03125 168.488281 117.03125 L 168.476562 116.835938 C 169.515625 114.679688 180.039062 94.496094 210.445312 94.496094 C 221.449219 94.496094 229.808594 97.699219 236.0625 101.945312 C 243.058594 106.695312 252.511719 101.804688 252.511719 93.347656 L 252.511719 34.167969 C 236.929688 70.667969 206.65625 69.316406 184.863281 76.722656 " fill-opacity="1" fill-rule="nonzero"/></g><g clip-path="url(#9bbbe77a13)"><path fill="#4b4b4b" d="M 250.410156 28.628906 C 251.28125 25.511719 253.199219 19.289062 253.199219 19.289062 C 180.519531 13.164062 168.5 46.148438 168.5 46.148438 C 185.363281 24.511719 237.722656 27.550781 250.410156 28.628906 " fill-opacity="1" fill-rule="nonzero"/></g><path fill="#a8d5ba" d="M 86.867188 27.371094 C 86.042969 24.242188 84.222656 17.988281 84.222656 17.988281 C 156.988281 12.984375 168.5 46.148438 168.5 46.148438 C 151.96875 24.253906 99.566406 26.484375 86.867188 27.371094 " fill-opacity="1" fill-rule="nonzero"/><g clip-path="url(#f8100099cb)"><path fill="#a8d5ba" d="M 83.796875 36.03125 L 100.710938 77.066406 C 127.878906 80.359375 152.527344 72.695312 168.5 93.1875 L 168.5 53.28125 C 149.253906 28.597656 83.796875 36.03125 83.796875 36.03125 " fill-opacity="1" fill-rule="nonzero"/></g><g clip-path="url(#c626cc70cf)"><path fill="#4b4b4b" d="M 253.199219 36.03125 L 236.285156 77.066406 C 209.117188 80.359375 184.472656 72.695312 168.5 93.1875 L 168.5 53.28125 C 187.742188 28.597656 253.199219 36.03125 253.199219 36.03125 " fill-opacity="1" fill-rule="nonzero"/></g><path fill="#4b4b4b" d="M 235.636719 0.00390625 L 233.316406 9.777344 C 211.808594 11.890625 181.191406 17.863281 170.535156 34.707031 C 170.535156 34.707031 177.710938 6.121094 235.636719 0.00390625 " fill-opacity="1" fill-rule="nonzero"/><path fill="#a8d5ba" d="M 101.359375 0.00390625 L 103.679688 9.777344 C 125.191406 11.890625 155.804688 17.863281 166.464844 34.707031 C 166.464844 34.707031 159.289062 6.121094 101.359375 0.00390625 " fill-opacity="1" fill-rule="nonzero"/><g clip-path="url(#1665674232)"><path fill="#4b4b4b" d="M 262.847656 259.546875 C 262.847656 260.640625 262.117188 261.613281 261.0625 261.902344 C 260.152344 262.15625 259.253906 262.328125 258.660156 262.449219 C 258.292969 262.523438 258.015625 262.847656 258.015625 263.25 L 258.015625 263.820312 C 258.015625 264.257812 258.367188 264.609375 258.804688 264.609375 L 277.261719 264.609375 C 277.699219 264.609375 278.050781 264.257812 278.050781 263.820312 L 278.050781 263.25 C 278.050781 262.863281 277.773438 262.523438 277.398438 262.449219 C 276.8125 262.339844 275.902344 262.15625 274.992188 261.902344 C 273.9375 261.613281 273.210938 260.640625 273.210938 259.546875 L 273.210938 202.484375 C 273.210938 201.394531 273.9375 200.421875 274.992188 200.128906 C 275.902344 199.875 276.800781 199.707031 277.398438 199.585938 C 277.785156 199.511719 278.050781 199.171875 278.050781 198.785156 L 278.050781 198.214844 C 278.050781 197.777344 277.699219 197.425781 277.261719 197.425781 L 262.847656 197.425781 L 258.804688 197.4375 C 258.367188 197.4375 258.015625 197.789062 258.015625 198.226562 L 258.015625 198.796875 C 258.015625 199.183594 258.292969 199.523438 258.671875 199.597656 C 259.253906 199.707031 260.164062 199.886719 261.074219 200.144531 C 262.128906 200.433594 262.859375 201.40625 262.859375 202.496094 L 262.859375 259.546875 Z M 262.847656 259.546875 " fill-opacity="1" fill-rule="nonzero"/></g><g clip-path="url(#ff86b86120)"><path fill="#4b4b4b" d="M 184.96875 264.664062 L 202.613281 264.664062 L 202.613281 243.472656 L 256.425781 184.449219 L 235.128906 184.449219 L 202.621094 219.507812 L 202.621094 184.449219 L 184.96875 184.449219 Z M 217.816406 239.367188 L 236.792969 264.664062 L 257.984375 264.664062 L 228.808594 226.828125 Z M 217.816406 239.367188 " fill-opacity="1" fill-rule="evenodd"/></g><g clip-path="url(#f5d10af88b)"><path fill="#4b4b4b" d="M 68.21875 181.925781 L 83.984375 242.472656 L 101.222656 181.925781 L 117.527344 181.925781 L 91.886719 264.667969 L 76.371094 264.667969 L 51.089844 181.925781 L 68.21875 181.925781 " fill-opacity="1" fill-rule="nonzero"/></g><g clip-path="url(#5bf1f191df)"><path fill="#4b4b4b" d="M 109.878906 220.136719 L 115.589844 242.472656 L 132.828125 181.925781 L 149.128906 181.925781 L 123.488281 264.667969 L 107.976562 264.667969 L 101.65625 245.992188 L 109.878906 220.136719 " fill-opacity="1" fill-rule="nonzero"/></g></svg>